<?xml version="1.0" encoding="UTF-8" standalone="no"?>
<svg
   xmlns:dc="http://purl.org/dc/elements/1.1/"
   xmlns:cc="http://creativecommons.org/ns#"
   xmlns:rdf="http://www.w3.org/1999/02/22-rdf-syntax-ns#"
   xmlns:svg="http://www.w3.org/2000/svg"
   xmlns="http://www.w3.org/2000/svg"
   xmlns:sodipodi="http://sodipodi.sourceforge.net/DTD/sodipodi-0.dtd"
   xmlns:inkscape="http://www.inkscape.org/namespaces/inkscape"
   width="32px"
   height="32px"
   viewBox="0 0 32 32"
   enable-background="new 0 0 32 32"
   version="1.1"
   xml:space="preserve"
   id="svg18"
   sodipodi:docname="object_quicksuplierprice.svg"
   inkscape:version="0.92.5 (2060ec1f9f, 2020-04-08)"
   inkscape:export-filename="/home/john/WWW/dolibarr/htdocs/custom/quicksupplierprice/img/logo quicksupplierprice.png"
   inkscape:export-xdpi="4500"
   inkscape:export-ydpi="4500"><metadata
     id="metadata24"><rdf:RDF><cc:Work
         rdf:about=""><dc:format>image/svg+xml</dc:format><dc:type
           rdf:resource="http://purl.org/dc/dcmitype/StillImage" /></cc:Work></rdf:RDF></metadata><defs
     id="defs22" /><sodipodi:namedview
     pagecolor="#505050"
     bordercolor="#ffffff"
     borderopacity="1"
     objecttolerance="10"
     gridtolerance="10"
     guidetolerance="10"
     inkscape:pageopacity="0"
     inkscape:pageshadow="2"
     inkscape:window-width="1920"
     inkscape:window-height="1043"
     id="namedview20"
     showgrid="false"
     inkscape:zoom="20.85965"
     inkscape:cx="10.661179"
     inkscape:cy="17.774302"
     inkscape:window-x="0"
     inkscape:window-y="293"
     inkscape:window-maximized="1"
     inkscape:current-layer="svg18" /><path
     style="color:#000000;font-style:normal;font-variant:normal;font-weight:normal;font-stretch:normal;font-size:medium;line-height:normal;font-family:sans-serif;font-variant-ligatures:normal;font-variant-position:normal;font-variant-caps:normal;font-variant-numeric:normal;font-variant-alternates:normal;font-feature-settings:normal;text-indent:0;text-align:start;text-decoration:none;text-decoration-line:none;text-decoration-style:solid;text-decoration-color:#000000;letter-spacing:normal;word-spacing:normal;text-transform:none;writing-mode:lr-tb;direction:ltr;text-orientation:mixed;dominant-baseline:auto;baseline-shift:baseline;text-anchor:start;white-space:normal;shape-padding:0;clip-rule:nonzero;display:inline;overflow:visible;visibility:visible;opacity:1;isolation:auto;mix-blend-mode:normal;color-interpolation:sRGB;color-interpolation-filters:linearRGB;solid-color:#000000;solid-opacity:1;vector-effect:none;fill:#00384e;fill-opacity:1;fill-rule:nonzero;stroke:none;stroke-width:0.69005394;stroke-linecap:butt;stroke-linejoin:miter;stroke-miterlimit:4;stroke-dasharray:none;stroke-dashoffset:0;stroke-opacity:1;color-rendering:auto;image-rendering:auto;shape-rendering:auto;text-rendering:auto;enable-background:accumulate"
     d="M 2.1152344 2.2167969 C 1.1665554 2.2167969 0.39062493 2.9927274 0.390625 3.9414062 L 0.390625 6.703125 C 0.39062507 7.6518039 1.1665555 8.4277344 2.1152344 8.4277344 L 5.2207031 8.4277344 L 5.2207031 7.046875 L 2.1152344 7.046875 C 1.9205945 7.046875 1.7714844 6.8977648 1.7714844 6.703125 L 1.7714844 3.9414062 C 1.7714844 3.8927463 1.7798547 3.8460378 1.796875 3.8046875 C 1.847936 3.6806366 1.9692544 3.5976563 2.1152344 3.5976562 L 5.2207031 3.5976562 L 5.2207031 3.2519531 L 5.2207031 2.2167969 L 2.1152344 2.2167969 z M 7.2910156 2.2167969 L 7.2910156 3.5976562 L 7.6367188 3.5976562 L 10.396484 3.5976562 C 10.591124 3.5976562 10.742186 3.7467665 10.742188 3.9414062 L 10.742188 6.703125 C 10.742187 6.8977649 10.591124 7.046875 10.396484 7.046875 L 7.2910156 7.046875 L 7.2910156 8.4277344 L 10.396484 8.4277344 C 11.345163 8.4277344 12.121094 7.651804 12.121094 6.703125 L 12.121094 3.9414062 C 12.121094 2.9927273 11.345163 2.2167968 10.396484 2.2167969 L 7.2910156 2.2167969 z M 2.1152344 2.90625 C 1.6895549 2.90625 1.3202222 3.170063 1.1621094 3.5410156 C 1.1094051 3.6646665 1.0800781 3.7995131 1.0800781 3.9414062 C 1.0800781 3.7974697 1.1080905 3.6611434 1.1601562 3.5371094 C 1.3163534 3.1650074 1.6834247 2.90625 2.1152344 2.90625 z M 10.396484 2.90625 C 10.972231 2.90625 11.431641 3.3656601 11.431641 3.9414062 C 11.431641 3.3738336 10.964057 2.90625 10.396484 2.90625 z M 1.0800781 6.703125 C 1.0800782 7.1288045 1.3438912 7.4967333 1.7148438 7.6542969 C 1.8384946 7.7068181 1.9733412 7.7363281 2.1152344 7.7363281 C 1.5394883 7.7363281 1.0800782 7.2788711 1.0800781 6.703125 z M 11.431641 6.703125 C 11.431641 7.2788711 10.972231 7.7363282 10.396484 7.7363281 C 10.964057 7.7363282 11.431641 7.2706977 11.431641 6.703125 z "
     id="path859" /><g
     id="Layer_1" /><path
     style="color:#000000;font-style:normal;font-variant:normal;font-weight:normal;font-stretch:normal;font-size:medium;line-height:normal;font-family:sans-serif;font-variant-ligatures:normal;font-variant-position:normal;font-variant-caps:normal;font-variant-numeric:normal;font-variant-alternates:normal;font-feature-settings:normal;text-indent:0;text-align:start;text-decoration:none;text-decoration-line:none;text-decoration-style:solid;text-decoration-color:#000000;letter-spacing:normal;word-spacing:normal;text-transform:none;writing-mode:lr-tb;direction:ltr;text-orientation:mixed;dominant-baseline:auto;baseline-shift:baseline;text-anchor:start;white-space:normal;shape-padding:0;clip-rule:nonzero;display:inline;overflow:visible;visibility:visible;opacity:1;isolation:auto;mix-blend-mode:normal;color-interpolation:sRGB;color-interpolation-filters:linearRGB;solid-color:#000000;solid-opacity:1;vector-effect:none;fill:#cb4f24;fill-opacity:1;fill-rule:nonzero;stroke:none;stroke-width:2;stroke-linecap:round;stroke-linejoin:round;stroke-miterlimit:10;stroke-dasharray:none;stroke-dashoffset:0;stroke-opacity:1;color-rendering:auto;image-rendering:auto;shape-rendering:auto;text-rendering:auto;enable-background:accumulate"
     d="M 15.984375 8.9863281 A 1.0001 1.0001 0 0 0 15 10 L 15 11 C 13.354545 11 12 12.354545 12 14 C 12 15.645455 13.354545 17 15 17 L 17 17 C 17.554545 17 18 17.445455 18 18 C 18 18.554545 17.554545 19 17 19 L 16.154297 19 A 1.0001 1.0001 0 0 0 15.984375 18.986328 A 1.0001 1.0001 0 0 0 15.839844 19 L 14 19 A 1.0001 1.0001 0 1 0 14 21 L 15 21 L 15 22 A 1.0001 1.0001 0 1 0 17 22 L 17 21 C 18.645455 21 20 19.645455 20 18 C 20 16.354545 18.645455 15 17 15 L 15 15 C 14.445455 15 14 14.554545 14 14 C 14 13.445455 14.445455 13 15 13 L 15.832031 13 A 1.0001 1.0001 0 0 0 16.158203 13 L 18 13 A 1.0001 1.0001 0 1 0 18 11 L 17 11 L 17 10 A 1.0001 1.0001 0 0 0 15.984375 8.9863281 z "
     id="line3" /><path
     style="color:#000000;font-style:normal;font-variant:normal;font-weight:normal;font-stretch:normal;font-size:medium;line-height:normal;font-family:sans-serif;font-variant-ligatures:normal;font-variant-position:normal;font-variant-caps:normal;font-variant-numeric:normal;font-variant-alternates:normal;font-feature-settings:normal;text-indent:0;text-align:start;text-decoration:none;text-decoration-line:none;text-decoration-style:solid;text-decoration-color:#000000;letter-spacing:normal;word-spacing:normal;text-transform:none;writing-mode:lr-tb;direction:ltr;text-orientation:mixed;dominant-baseline:auto;baseline-shift:baseline;text-anchor:start;white-space:normal;shape-padding:0;clip-rule:nonzero;display:inline;overflow:visible;visibility:visible;opacity:1;isolation:auto;mix-blend-mode:normal;color-interpolation:sRGB;color-interpolation-filters:linearRGB;solid-color:#000000;solid-opacity:1;vector-effect:none;fill:#00384e;fill-opacity:1;fill-rule:nonzero;stroke:none;stroke-width:2;stroke-linecap:round;stroke-linejoin:round;stroke-miterlimit:10;stroke-dasharray:none;stroke-dashoffset:0;stroke-opacity:1;color-rendering:auto;image-rendering:auto;shape-rendering:auto;text-rendering:auto;enable-background:accumulate"
     d="M 16 5 A 1.0001 1.0001 0 1 0 16 7 C 20.954545 7 25 11.045455 25 16 C 25 20.954545 20.954545 25 16 25 C 11.045455 25 7 20.954545 7 16 L 7 15.414062 L 9.2929688 17.707031 A 1.0001 1.0001 0 1 0 10.707031 16.292969 L 6.7949219 12.380859 A 1.0001 1.0001 0 0 0 5.2070312 12.376953 A 1.0001 1.0001 0 0 0 5.203125 12.382812 L 1.2929688 16.292969 A 1.0001 1.0001 0 1 0 2.7070312 17.707031 L 5 15.414062 L 5 16 C 5 22.045455 9.9545455 27 16 27 C 22.045455 27 27 22.045455 27 16 C 27 9.9545455 22.045455 5 16 5 z "
     id="path9" /><path
     style="color:#000000;font-style:normal;font-variant:normal;font-weight:normal;font-stretch:normal;font-size:medium;line-height:normal;font-family:sans-serif;font-variant-ligatures:normal;font-variant-position:normal;font-variant-caps:normal;font-variant-numeric:normal;font-variant-alternates:normal;font-feature-settings:normal;text-indent:0;text-align:start;text-decoration:none;text-decoration-line:none;text-decoration-style:solid;text-decoration-color:#000000;letter-spacing:normal;word-spacing:normal;text-transform:none;writing-mode:lr-tb;direction:ltr;text-orientation:mixed;dominant-baseline:auto;baseline-shift:baseline;text-anchor:start;white-space:normal;shape-padding:0;clip-rule:nonzero;display:inline;overflow:visible;visibility:visible;opacity:1;isolation:auto;mix-blend-mode:normal;color-interpolation:sRGB;color-interpolation-filters:linearRGB;solid-color:#000000;solid-opacity:1;vector-effect:none;fill:#00384e;fill-opacity:1;fill-rule:nonzero;stroke:none;stroke-width:2;stroke-linecap:round;stroke-linejoin:round;stroke-miterlimit:10;stroke-dasharray:none;stroke-dashoffset:0;stroke-opacity:1;color-rendering:auto;image-rendering:auto;shape-rendering:auto;text-rendering:auto;enable-background:accumulate"
     d="m 16,1 a 1.0001,1.0001 0 1 0 0,2 c 7.154545,0 13,5.8454545 13,13 0,7.154545 -5.845455,13 -13,13 a 1.0001,1.0001 0 1 0 0,2 C 24.245455,31 31,24.245455 31,16 31,7.7545455 24.245455,1 16,1 Z"
     id="path13"
     inkscape:connector-curvature="0" /><path
     d="M 6.2324268,0.49171851 A 0.70457281,0.34502697 0 0 1 6.9369997,0.83674548 V 9.8074469 a 0.70457281,0.34502697 0 0 1 -1.4091455,0 V 0.83674548 A 0.70457281,0.34502697 0 0 1 6.2324268,0.49171851 Z"
     id="path4"
     style="fill:#cb4f24;fill-opacity:1;fill-rule:evenodd;stroke-width:0.98609662"
     inkscape:connector-curvature="0" /></svg>